<svg width="31" height="31" viewBox="0 0 31 31" fill="none" xmlns="http://www.w3.org/2000/svg">
<path d="M18.9949 5.57087H12.0044C11.1594 5.57053 10.3225 5.73671 9.54172 6.0599C8.76091 6.38309 8.05143 6.85697 7.45383 7.45445C6.85623 8.05193 6.38221 8.76132 6.05886 9.54206C5.73551 10.3228 5.56917 11.1596 5.56934 12.0047V18.9952C5.569 19.8403 5.73521 20.6773 6.05849 21.4582C6.38176 22.2391 6.85575 22.9486 7.45337 23.5462C8.05099 24.1438 8.76053 24.6178 9.54142 24.9411C10.3223 25.2644 11.1593 25.4306 12.0044 25.4302H18.9949C19.8401 25.4306 20.677 25.2644 21.4579 24.9411C22.2388 24.6178 22.9483 24.1438 23.546 23.5462C24.1436 22.9486 24.6176 22.2391 24.9409 21.4582C25.2641 20.6773 25.4303 19.8403 25.43 18.9952V12.0047C25.4303 11.1595 25.2641 10.3226 24.9409 9.54166C24.6176 8.76077 24.1436 8.05124 23.546 7.45362C22.9483 6.856 22.2388 6.382 21.4579 6.05873C20.677 5.73546 19.8401 5.56924 18.9949 5.56958V5.57087Z" stroke="#00214B" stroke-width="1.3"/>
<path d="M25.3243 20.1344H27.4155C27.7666 20.1344 28.1034 19.9949 28.3516 19.7466C28.5999 19.4983 28.7394 19.1616 28.7394 18.8104V12.1907C28.7394 11.8395 28.5999 11.5028 28.3516 11.2545C28.1034 11.0062 27.7666 10.8667 27.4155 10.8667H25.323M5.67671 20.1344H3.58421C3.41035 20.1344 3.23819 20.1002 3.07756 20.0336C2.91693 19.9671 2.77097 19.8696 2.64803 19.7466C2.52509 19.6237 2.42757 19.4777 2.36103 19.3171C2.2945 19.1565 2.26025 18.9843 2.26025 18.8104V12.1907C2.26025 11.8395 2.39974 11.5028 2.64803 11.2545C2.89632 11.0062 3.23308 10.8667 3.58421 10.8667H5.67671" stroke="#00214B" stroke-width="1.3"/>
<path d="M3.57129 10.8666V5.5708M27.4155 10.8666L27.4025 5.5708M12.8519 19.681C13.556 20.3798 14.5078 20.772 15.4998 20.772C16.4919 20.772 17.4437 20.3798 18.1477 19.681M10.1782 14.1759L11.4995 12.8519L12.8235 14.1759M18.1219 14.1759L19.4459 12.8519L20.7685 14.1759" stroke="#00214B" stroke-width="1.3" stroke-linecap="round" stroke-linejoin="round"/>
</svg>
