<svg width="30" height="30" viewBox="0 0 30 30" fill="none" xmlns="http://www.w3.org/2000/svg">
<path d="M24.375 4.6875C24.375 3.94158 24.6713 3.22621 25.1988 2.69876C25.7262 2.17132 26.4416 1.875 27.1875 1.875C27.9334 1.875 28.6488 2.17132 29.1762 2.69876C29.7037 3.22621 30 3.94158 30 4.6875V25.3125C30 26.0584 29.7037 26.7738 29.1762 27.3012C28.6488 27.8287 27.9334 28.125 27.1875 28.125C26.4416 28.125 25.7262 27.8287 25.1988 27.3012C24.6713 26.7738 24.375 26.0584 24.375 25.3125V24.9113C20.3213 22.5844 15.9562 21.4556 11.415 21.0056L12.1744 26.0906C12.2254 26.3615 12.216 26.6403 12.147 26.9072C12.0779 27.1741 11.9508 27.4224 11.7748 27.6346C11.5988 27.8468 11.3782 28.0175 11.1287 28.1347C10.8792 28.2519 10.6069 28.3126 10.3313 28.3125H9.30375C8.93929 28.3125 8.58274 28.2062 8.27771 28.0068C7.97268 27.8073 7.7324 27.5233 7.58625 27.1894L4.1175 20.6456L3.73875 20.64C2.74568 20.6301 1.79647 20.2295 1.0967 19.5248C0.39692 18.8201 0.00290971 17.8681 0 16.875L0 13.125C0.00334647 12.1318 0.396693 11.1797 1.09531 10.4737C1.79392 9.7677 2.74189 9.36439 3.735 9.35063C5.28754 9.32946 6.83963 9.28257 8.39062 9.21C14.0962 8.92125 19.9181 7.61813 24.375 5.08688V4.6875ZM26.25 4.6875V25.3125C26.25 25.5611 26.3488 25.7996 26.5246 25.9754C26.7004 26.1512 26.9389 26.25 27.1875 26.25C27.4361 26.25 27.6746 26.1512 27.8504 25.9754C28.0262 25.7996 28.125 25.5611 28.125 25.3125V4.6875C28.125 4.43886 28.0262 4.2004 27.8504 4.02459C27.6746 3.84877 27.4361 3.75 27.1875 3.75C26.9389 3.75 26.7004 3.84877 26.5246 4.02459C26.3488 4.2004 26.25 4.43886 26.25 4.6875ZM24.375 7.21875C19.98 9.47813 14.6081 10.6725 9.375 11.0306V18.9675C9.7125 18.9863 10.0481 19.0088 10.3819 19.035C15.1969 19.3894 19.9312 20.43 24.375 22.7719V7.21875ZM7.5 18.8719V11.1281C6.25537 11.1737 5.01031 11.2062 3.765 11.2256C3.26395 11.2315 2.78522 11.4338 2.43177 11.789C2.07833 12.1442 1.8784 12.6239 1.875 13.125V16.875C1.875 17.9063 2.715 18.7537 3.76125 18.7669C5.00799 18.7815 6.25441 18.8165 7.5 18.8719ZM6.26813 20.7L9.285 26.3944L9.30375 26.4394H10.3313L10.3275 26.4131L9.49687 20.8519C8.42132 20.787 7.34498 20.7357 6.26813 20.6981V20.7Z" fill="#00214B"/>
</svg>
