<svg width="20" height="20" viewBox="0 0 20 20" fill="none" xmlns="http://www.w3.org/2000/svg">
<path d="M14.5 3.72093C15.0304 3.72093 15.5391 3.52492 15.9142 3.17601C16.2893 2.82711 16.5 2.35389 16.5 1.86047C16.5 1.36704 16.2893 0.893822 15.9142 0.544918C15.5391 0.196013 15.0304 0 14.5 0C13.9696 0 13.4609 0.196013 13.0858 0.544918C12.7107 0.893822 12.5 1.36704 12.5 1.86047C12.5 2.35389 12.7107 2.82711 13.0858 3.17601C13.4609 3.52492 13.9696 3.72093 14.5 3.72093ZM10.9 16.6512L11.9 12.5581L14 14.4186V20H16V13.0233L13.9 11.1628L14.5 8.37209C15.1852 9.10245 16.0306 9.68787 16.9792 10.089C17.9279 10.4901 18.9579 10.6977 20 10.6977V8.83721C18.24 8.86512 16.6 8.0093 15.7 6.60465L14.7 5.11628C14.34 4.55814 13.7 4.18605 13 4.18605C12.7 4.18605 12.5 4.27907 12.2 4.27907L7 6.32558V10.6977H9V7.53488L10.8 6.88372L9.2 14.4186L4.3 13.4884L3.9 15.3488L10.9 16.6512ZM2 6.97674C1.73478 6.97674 1.48043 6.87874 1.29289 6.70429C1.10536 6.52983 1 6.29322 1 6.04651C1 5.7998 1.10536 5.56319 1.29289 5.38874C1.48043 5.21429 1.73478 5.11628 2 5.11628H5V6.97674H2ZM3 3.25581C2.73478 3.25581 2.48043 3.15781 2.29289 2.98336C2.10536 2.8089 2 2.57229 2 2.32558C2 2.07887 2.10536 1.84226 2.29289 1.66781C2.48043 1.49336 2.73478 1.39535 3 1.39535H8V3.25581H3ZM1 10.6977C0.734784 10.6977 0.48043 10.5997 0.292893 10.4252C0.105357 10.2508 0 10.0142 0 9.76744C0 9.52073 0.105357 9.28412 0.292893 9.10967C0.48043 8.93522 0.734784 8.83721 1 8.83721H5V10.6977H1Z" fill="#CFDDFC"/>
</svg>
