<svg width="22" height="20" viewBox="0 0 22 20" fill="none" xmlns="http://www.w3.org/2000/svg">
<path d="M15.8203 0C13.5896 0 11.6965 2.1252 10.7578 5.30086C9.81914 2.1252 7.92598 0 5.69531 0C2.50172 0 0 4.3548 0 9.91406C0 15.4733 2.50172 19.8281 5.69531 19.8281C7.92598 19.8281 9.81914 17.7029 10.7578 14.5273C11.6965 17.7029 13.5896 19.8281 15.8203 19.8281C19.0139 19.8281 21.5156 15.4733 21.5156 9.91406C21.5156 4.3548 19.0139 0 15.8203 0ZM5.69531 18.5625C3.77156 18.5625 2.08934 16.0207 1.49449 12.6004C1.97358 12.8985 2.52368 13.0631 3.0878 13.0771C3.65192 13.0912 4.20952 12.9541 4.70282 12.68C5.19611 12.406 5.60715 12.0051 5.89333 11.5187C6.17951 11.0324 6.33042 10.4784 6.33042 9.91406C6.33042 9.34977 6.17951 8.79574 5.89333 8.30941C5.60715 7.82307 5.19611 7.42211 4.70282 7.14809C4.20952 6.87407 3.65192 6.73696 3.0878 6.75098C2.52368 6.76499 1.97358 6.92961 1.49449 7.22777C2.08934 3.80742 3.77156 1.26562 5.69531 1.26562C8.09684 1.26562 10.125 5.22598 10.125 9.91406C10.125 14.6021 8.09684 18.5625 5.69531 18.5625ZM1.26562 9.91406C1.26562 9.53859 1.37697 9.17154 1.58557 8.85935C1.79417 8.54715 2.09067 8.30382 2.43756 8.16014C2.78446 8.01645 3.16617 7.97885 3.53443 8.0521C3.90269 8.12535 4.24096 8.30616 4.50646 8.57166C4.77196 8.83717 4.95277 9.17544 5.02602 9.5437C5.09927 9.91196 5.06168 10.2937 4.91799 10.6406C4.7743 10.9875 4.53097 11.284 4.21878 11.4926C3.90658 11.7012 3.53954 11.8125 3.16406 11.8125C2.66057 11.8125 2.17769 11.6125 1.82166 11.2565C1.46564 10.9004 1.26562 10.4176 1.26562 9.91406ZM15.8203 18.5625C13.8966 18.5625 12.2143 16.0207 11.6195 12.6004C12.0986 12.8985 12.6487 13.0631 13.2128 13.0771C13.7769 13.0912 14.3345 12.9541 14.8278 12.68C15.3211 12.406 15.7321 12.0051 16.0183 11.5187C16.3045 11.0324 16.4554 10.4784 16.4554 9.91406C16.4554 9.34977 16.3045 8.79574 16.0183 8.30941C15.7321 7.82307 15.3211 7.42211 14.8278 7.14809C14.3345 6.87407 13.7769 6.73696 13.2128 6.75098C12.6487 6.76499 12.0986 6.92961 11.6195 7.22777C12.2143 3.80742 13.8966 1.26562 15.8203 1.26562C18.2218 1.26562 20.25 5.22598 20.25 9.91406C20.25 14.6021 18.2218 18.5625 15.8203 18.5625ZM11.3906 9.91406C11.3906 9.53859 11.502 9.17154 11.7106 8.85935C11.9192 8.54715 12.2157 8.30382 12.5626 8.16014C12.9095 8.01645 13.2912 7.97885 13.6594 8.0521C14.0277 8.12535 14.366 8.30616 14.6315 8.57166C14.897 8.83717 15.0778 9.17544 15.151 9.5437C15.2243 9.91196 15.1867 10.2937 15.043 10.6406C14.8993 10.9875 14.656 11.284 14.3438 11.4926C14.0316 11.7012 13.6645 11.8125 13.2891 11.8125C12.7856 11.8125 12.3027 11.6125 11.9467 11.2565C11.5906 10.9004 11.3906 10.4176 11.3906 9.91406Z" fill="#00214B"/>
</svg>

