<svg width="18" height="24" viewBox="0 0 18 24" fill="none" xmlns="http://www.w3.org/2000/svg">
<path d="M1.88076 18.2499C1.88076 20.6809 3.1939 22.6499 5.57219 22.6499C7.95047 22.6499 9.88076 20.9999 10.4956 18.2499C10.7916 16.931 11.3962 16.1346 12.3425 15.4999C14.8042 13.8499 16.6499 11.3111 16.6499 8.3499C16.6499 7.33872 16.443 6.33745 16.0409 5.40324C15.6389 4.46903 15.0496 3.62019 14.3068 2.90518C13.5639 2.19017 12.682 1.62299 11.7114 1.23603C10.7408 0.849069 9.70048 0.649902 8.6499 0.649902C7.59933 0.649902 6.55904 0.849069 5.58843 1.23603C4.61783 1.62299 3.73592 2.19017 2.99305 2.90518C2.25018 3.62019 1.6609 4.46903 1.25887 5.40324C0.856828 6.33745 0.649902 7.33872 0.649902 8.3499" stroke="#00214B" stroke-width="1.3" stroke-linecap="round" stroke-linejoin="round"/>
<path d="M5.22119 14.9498C6.80405 14.9498 8.08748 13.8421 8.08748 12.4748C8.08748 11.1075 6.80405 9.9998 5.22119 9.9998C5.22119 7.7811 5.75148 5.0498 8.66119 5.0498C10.7069 5.0498 11.9069 6.5612 12.0783 8.5148" stroke="#00214B" stroke-width="1.3" stroke-linecap="round" stroke-linejoin="round"/>
</svg>

