<svg width="27" height="27" viewBox="0 0 27 27" fill="none" xmlns="http://www.w3.org/2000/svg">
<path d="M18.6924 7.7019L20.9424 8.2644M8.56738 19.5144C8.56738 19.5144 5.19238 17.8269 5.19238 13.8894C5.19238 9.95191 8.00488 8.2644 13.0674 6.5769C16.4424 5.4519 18.6924 4.3269 18.6924 2.0769M6.31738 17.8269C6.31738 17.8269 5.75488 19.385 5.75488 21.4607C5.75488 23.0199 6.31738 24.5769 6.31738 24.5769M13.0674 16.7019L13.982 18.0733C14.3928 18.6895 14.9494 19.1947 15.6023 19.5442C16.2552 19.8937 16.9843 20.0767 17.7249 20.0769H20.9424M19.8174 16.7019V16.7132M14.1924 18.3894V24.5769" stroke="#00214B" stroke-width="1.3" stroke-linecap="round" stroke-linejoin="round"/>
</svg>
