<svg width="35" height="35" viewBox="0 0 35 35" fill="none" xmlns="http://www.w3.org/2000/svg">
<path d="M28.417 26.9165C30.538 26.9165 31.5985 26.9165 32.257 26.2565C32.917 25.598 32.917 24.5375 32.917 22.4165C32.917 20.2955 32.917 19.235 32.257 18.5765C31.6 17.9165 30.5395 17.9165 28.417 17.9165M7.41699 26.9165C5.29599 26.9165 4.23549 26.9165 3.57699 26.2565C2.91699 25.5995 2.91699 24.539 2.91699 22.4165C2.91699 20.294 2.91699 19.235 3.57699 18.5765C4.23399 17.9165 5.29449 17.9165 7.41699 17.9165M17.917 7.4165C18.5137 7.4165 19.086 7.17945 19.508 6.75749C19.9299 6.33554 20.167 5.76324 20.167 5.1665C20.167 4.56977 19.9299 3.99747 19.508 3.57551C19.086 3.15356 18.5137 2.9165 17.917 2.9165C17.3203 2.9165 16.748 3.15356 16.326 3.57551C15.904 3.99747 15.667 4.56977 15.667 5.1665C15.667 5.76324 15.904 6.33554 16.326 6.75749C16.748 7.17945 17.3203 7.4165 17.917 7.4165ZM17.917 7.4165V11.9165M13.417 19.4165V20.9165M22.417 19.4165V20.9165M28.417 23.9165V20.9165C28.417 16.6745 28.417 14.552 27.0985 13.235C25.7815 11.9165 23.659 11.9165 19.417 11.9165H16.417C12.175 11.9165 10.0525 11.9165 8.73549 13.235C7.41699 14.552 7.41699 16.6745 7.41699 20.9165V23.9165C7.41699 28.1585 7.41699 30.281 8.73549 31.598C10.0525 32.9165 12.175 32.9165 16.417 32.9165H19.417C23.659 32.9165 25.7815 32.9165 27.0985 31.598C28.417 30.281 28.417 28.1585 28.417 23.9165Z" stroke="#00214B" stroke-width="2.2" stroke-linecap="round" stroke-linejoin="round"/>
<path d="M14.917 26.1665C14.917 26.1665 15.9175 26.9165 17.917 26.9165C19.9165 26.9165 20.917 26.1665 20.917 26.1665" stroke="#00214B" stroke-width="2.2" stroke-linecap="round" stroke-linejoin="round"/>
</svg>
