<svg width="17" height="16" viewBox="0 0 17 16" fill="none" xmlns="http://www.w3.org/2000/svg">
<path d="M13.4299 15.025C14.4182 14.0397 15.202 12.8688 15.7362 11.5795C16.2703 10.2902 16.5443 8.90805 16.5424 7.5125C16.5443 6.11695 16.2703 4.73479 15.7362 3.44552C15.202 2.15624 14.4182 0.985287 13.4299 0L12.5449 0.88375C13.4166 1.7534 14.1079 2.78666 14.5792 3.92421C15.0505 5.06176 15.2924 6.28119 15.2912 7.5125C15.2912 10.1013 14.2412 12.445 12.5449 14.1413L13.4299 15.025Z" fill="#CFDDFC"/>
<path d="M11.165 13.2576C11.9206 12.504 12.5198 11.6085 12.9283 10.6226C13.3367 9.63665 13.5463 8.57975 13.545 7.51258C13.5463 6.44541 13.3367 5.3885 12.9283 4.40259C12.5198 3.41667 11.9206 2.52118 11.165 1.76758L10.2812 2.65133C10.9208 3.28889 11.4279 4.0466 11.7735 4.88088C12.1191 5.71517 12.2963 6.60955 12.295 7.51258C12.2967 8.41573 12.1197 9.3103 11.7743 10.1448C11.4289 10.9793 10.9219 11.7373 10.2825 12.3751L11.165 13.2576Z" fill="#CFDDFC"/>
<path d="M9.63375 11.49C10.1561 10.9677 10.5704 10.3476 10.8531 9.6651C11.1358 8.98264 11.2813 8.25118 11.2812 7.51249C11.2813 6.7738 11.1358 6.04235 10.8531 5.35989C10.5704 4.67743 10.1561 4.05733 9.63375 3.53499L8.75 4.41874C9.15625 4.82503 9.47849 5.30736 9.69833 5.83819C9.91816 6.36901 10.0313 6.93794 10.0312 7.51249C10.0313 8.08704 9.91816 8.65597 9.69833 9.1868C9.47849 9.71763 9.15625 10.2 8.75 10.6062L9.63375 11.49ZM7.14625 1.94999C7.25214 2.001 7.3415 2.08084 7.40407 2.18034C7.46664 2.27983 7.49989 2.39496 7.5 2.51249V12.5125C7.49983 12.6301 7.46649 12.7453 7.40379 12.8448C7.3411 12.9443 7.25161 13.0241 7.14559 13.075C7.03958 13.1259 6.92135 13.1459 6.8045 13.1326C6.68764 13.1193 6.5769 13.0734 6.485 13L3.53125 10.6375H0.625C0.45924 10.6375 0.300268 10.5716 0.183058 10.4544C0.065848 10.3372 0 10.1783 0 10.0125V5.01249C0 4.84673 0.065848 4.68776 0.183058 4.57055C0.300268 4.45334 0.45924 4.38749 0.625 4.38749H3.53125L6.485 2.02499C6.57697 1.95148 6.68783 1.90543 6.80481 1.89217C6.9218 1.8789 7.04016 1.89894 7.14625 1.94999Z" fill="#CFDDFC"/>
</svg>
